<svg id="Capa_1" enable-background="new 0 0 512 512" height="512" viewBox="0 0 512 512" width="512" xmlns="http://www.w3.org/2000/svg"><g><path d="m432.624 297.358c-44.477-27.638-55.364-105.858-55.364-105.858h-242.52s-10.887 78.22-55.365 105.858c-41.366 25.704-33.839 71.181 14.487 77.42 6.73 14.817 21.646 25.126 38.98 25.126 9.592 0 18.447-3.156 25.584-8.485 8.662 18.266 27.264 30.901 48.823 30.901 21.508 0 40.065-12.578 48.749-30.776 8.684 18.198 27.241 30.776 48.749 30.776 21.559 0 40.162-12.635 48.823-30.901 7.137 5.329 15.992 8.485 25.584 8.485 17.334 0 32.25-10.31 38.98-25.126 48.329-6.239 55.856-51.716 14.49-77.42z" fill="#f1eee0"/><path d="m410.15 276.22c-5.52 9.23-15.61 15.41-27.14 15.41-3.69 0-10.14 111.52-123.9 111.52-2.071 0-4.154 0-6.22 0-113.76 0-120.21-111.52-123.9-111.52-11.53 0-21.62-6.18-27.14-15.41 25.85-34.18 32.89-84.72 32.89-84.72h242.52s7.04 50.54 32.89 84.72z" fill="#e8e4d8"/><path d="m418.14 374.78c-6.73 14.81-21.65 25.12-38.98 25.12-9.6 0-18.45-3.15-25.59-8.48-8.66 18.27-27.26 30.9-48.82 30.9-21.51 0-40.07-12.58-48.75-30.78-8.68 18.2-27.24 30.78-48.75 30.78-21.56 0-40.16-12.63-48.82-30.9-7.14 5.33-15.99 8.48-25.59 8.48-17.33 0-32.25-10.31-38.98-25.12-34.91-4.51-48.53-29.5-37.79-52.72 5.79 11.19 18.56 19.89 37.79 22.37 6.73 14.81 21.65 25.12 38.98 25.12 9.6 0 21.81-6.51 25.59-14.48 8.66 18.27 27.26 33.9 48.82 33.9 21.51 0 40.07-12.58 48.75-30.78 8.68 18.2 27.24 30.78 48.75 30.78 21.56 0 40.16-15.63 48.82-33.9 3.777 8.292 15.99 14.48 25.59 14.48 17.33 0 32.25-10.31 38.98-25.12 19.23-2.48 32-11.18 37.79-22.37 10.74 23.22-2.88 48.21-37.79 52.72z" fill="#e8e4d8"/><g><g><g><g><g><circle cx="383.012" cy="244.975" fill="#f79a7c" r="31.585"/><circle cx="383.012" cy="237.838" fill="#fcad97" r="24.448"/></g><g><circle cx="128.988" cy="244.975" fill="#f79a7c" r="31.585"/><circle cx="128.988" cy="237.838" fill="#fcad97" r="24.448"/></g></g><g><g><g><g><path d="m288.041 368.509v58.429c0 18.111-14.689 32.791-32.8 32.791s-32.8-14.68-32.8-32.791v-58.429z" fill="#fcad97"/><path d="m288.041 368.509v30.028c-10.405 3.037-21.411 4.668-32.8 4.668-11.39 0-22.395-1.631-32.8-4.668v-30.028z" fill="#f79a7c"/><g><path d="m372.87 140.87v124.38c0 64.55-52.33 116.87-116.88 116.87-64.53 0-116.86-52.32-116.86-116.87v-124.38z" fill="#ffccb7"/></g><path d="m372.87 140.87v94.98c-.35.01-.7.02-1.06.02h-26.99c-4.95 0-9.61-1.81-13.2-4.96-3.56 3.13-8.21 4.96-13.18 4.96h-14.22c-4.65 0-9.03-1.63-12.51-4.42-3.46 2.79-7.84 4.42-12.54 4.42h-138.98c-.36 0-.71-.01-1.06-.02v-94.98z" fill="#fcad97"/><g><path d="m381.81 140.87v73c0 5.52-4.47 10-10 10h-26.995c-1.855 0-3.557-1.027-4.422-2.667l-10.663-20.213-6.554 19.475c-.685 2.035-2.592 3.405-4.739 3.405h-14.221c-2.23 0-4.19-1.476-4.806-3.619l-8.26-28.751-7.134 28.581c-.556 2.227-2.556 3.789-4.851 3.789h-138.975c-5.53 0-10-4.48-10-10v-73z" fill="#f1eee0"/></g><g><ellipse cx="202.494" cy="248.489" fill="#48acff" rx="12.347" ry="15.165"/><ellipse cx="309.506" cy="248.489" fill="#48acff" rx="12.347" ry="15.165"/><path d="m256 335.977c-7.618 0-14.859-2.892-20.388-8.144-2.615-2.483-2.722-6.617-.237-9.232 2.484-2.613 6.617-2.721 9.232-.237 3.091 2.936 7.138 4.553 11.394 4.553s8.302-1.617 11.394-4.553c2.616-2.483 6.75-2.375 9.232.237 2.484 2.616 2.377 6.749-.237 9.232-5.531 5.251-12.771 8.144-20.39 8.144z" fill="#f79a7c"/><path d="m259.903 288.492h-7.805c-3.894 0-6.802-3.583-6-7.394l3.902-18.542c.597-2.837 3.1-4.869 6-4.869 2.9 0 5.403 2.031 6 4.869l3.903 18.542c.802 3.811-2.105 7.394-6 7.394z" fill="#ffe7de"/></g></g></g></g></g><g><g><path d="m371.567 128.794c-1.739-62.333-52.813-112.331-115.567-112.331s-113.828 49.998-115.567 112.331z" fill="#fe255f"/><path d="m234.756 30.14c-.011-.072-.022-.144-.033-.216-.927-6.165-7.113-10.122-13.066-8.272-30.292 9.413-55.243 30.947-69.188 58.932-2.356 4.729-.645 10.482 3.86 13.243l.179.11c5.079 3.112 11.765 1.241 14.416-4.093 4.711-9.482 11.035-18.2 18.827-25.792 10.833-10.548 23.768-18.215 37.834-22.61 4.853-1.517 7.928-6.275 7.171-11.302z" fill="#fc709b"/><path d="m207.506 27.104c-3.608 1.669-7.115 3.518-10.51 5.536-5.135 3.053-6.544 9.85-3.079 14.715.04.056.08.112.12.168 3.09 4.341 8.984 5.561 13.566 2.841 2.789-1.656 5.657-3.163 8.591-4.518 4.773-2.204 7.122-7.66 5.391-12.624-.023-.067-.047-.134-.07-.201-2.001-5.735-8.496-8.467-14.009-5.917z" fill="#f7a6c1"/><path d="m371.567 128.797h-105.443c27.535-14.436 46.316-43.293 46.316-76.538 0-7.872-1.054-15.503-3.023-22.748 36.055 18.823 60.945 56.09 62.15 99.286z" fill="#e01152"/><g><g><path d="m347.243 107.118-8.69-32.668s-21.311 2.909-35.612 28.565l-46.941-90.623-46.942 90.623c-14.301-25.656-35.612-28.565-35.612-28.565l-8.69 32.668c-30.414-29.415-68.276-26.448-68.276-26.448 30.414 37.242 32.277 92.861 32.277 92.861h254.488s1.862-55.618 32.276-92.861c-.001 0-37.863-2.967-68.278 26.448z" fill="#ffc751"/><path d="m415.522 80.67c-30.414 37.239-32.28 92.86-32.28 92.86h-87.482c41.633-9.263 73.976-43.176 80.925-85.636 21.012-8.623 38.837-7.224 38.837-7.224z" fill="#ffaf40"/><path d="m415.522 80.67c-30.414 37.239-32.28 92.86-32.28 92.86h-27.942c19.47-18.499 31.612-44.643 31.612-73.624 0-5.172-.386-10.255-1.136-15.221 16.818-5.028 29.746-4.015 29.746-4.015z" fill="#ff993a"/><path d="m273.396 85.845-17.396-33.584-17.396 33.584z" fill="#e01152"/><g><circle cx="256" cy="16.792" fill="#ffaf40" r="16.792"/><circle cx="256" cy="12.705" fill="#ffc751" r="12.705"/><circle cx="256" cy="16.792" fill="#7cbaf7" r="9.515"/><circle cx="256" cy="12.895" fill="#a9cffc" r="5.617"/></g><g><g><circle cx="172.76" cy="69.053" fill="#ffaf40" r="16.792"/><circle cx="172.76" cy="64.966" fill="#ffc751" r="12.705"/><circle cx="172.76" cy="69.053" fill="#7cbaf7" r="9.515"/><circle cx="172.76" cy="65.155" fill="#a9cffc" r="5.617"/></g><g><circle cx="339.24" cy="69.053" fill="#ffaf40" r="16.792"/><circle cx="339.24" cy="64.966" fill="#ffc751" r="12.705"/><circle cx="339.24" cy="69.053" fill="#7cbaf7" r="9.515"/><circle cx="339.24" cy="65.155" fill="#a9cffc" r="5.617"/></g></g><g><g><circle cx="415.52" cy="80.781" fill="#ffaf40" r="16.792"/><circle cx="415.52" cy="76.694" fill="#ffc751" r="12.705"/><circle cx="415.52" cy="80.781" fill="#7cbaf7" r="9.515"/><circle cx="415.52" cy="76.884" fill="#a9cffc" r="5.617"/></g><g><circle cx="96.48" cy="80.781" fill="#ffaf40" r="16.792"/><circle cx="96.48" cy="76.694" fill="#ffc751" r="12.705"/><circle cx="96.48" cy="80.781" fill="#7cbaf7" r="9.515"/><circle cx="96.48" cy="76.884" fill="#a9cffc" r="5.617"/></g></g></g><path d="m383.244 196.161v-22.631h-254.488v22.631c0 3.804 3.084 6.887 6.887 6.887h240.713c3.804 0 6.888-3.083 6.888-6.887z" fill="#ffe059"/><path d="m383.241 173.53v22.631c0 3.802-3.079 6.887-6.887 6.887h-62.488c22.301 0 41.84-11.811 52.701-29.518z" fill="#ffc751"/><path d="m381.813 181.69h-251.626c-3.79 0-6.862-3.072-6.862-6.862 0-3.79 3.072-6.862 6.862-6.862h251.626c3.79 0 6.862 3.072 6.862 6.862 0 3.789-3.072 6.862-6.862 6.862z" fill="#ff993a"/><path d="m251.219 167.966h-96.101c-3.79 0-6.862 3.072-6.862 6.862 0 3.79 3.072 6.862 6.862 6.862h96.101c3.79 0 6.862-3.072 6.862-6.862 0-3.79-3.072-6.862-6.862-6.862z" fill="#ffaf40"/><path d="m199.967 167.966h-24.715c-3.79 0-6.862 3.072-6.862 6.862 0 3.79 3.072 6.862 6.862 6.862h24.715c3.79 0 6.862-3.072 6.862-6.862 0-3.79-3.072-6.862-6.862-6.862z" fill="#ffc751"/><g><path d="m233.661 108.225h44.677c1.215 0 2.38.49 3.239 1.363l8.23 8.362c1.789 1.818 1.789 4.764 0 6.582l-30.568 31.061c-1.789 1.818-4.689 1.818-6.478 0l-30.568-31.061c-1.789-1.818-1.789-4.764 0-6.582l8.23-8.362c.859-.872 2.024-1.363 3.238-1.363z" fill="#ffaf40"/><path d="m235.361 105.864h41.277c1.122 0 2.199.453 2.992 1.259l7.603 7.726c1.653 1.679 1.653 4.402 0 6.081l-28.242 28.697c-1.653 1.679-4.332 1.679-5.985 0l-28.242-28.697c-1.653-1.679-1.653-4.402 0-6.081l7.603-7.726c.796-.806 1.872-1.259 2.994-1.259z" fill="#7cbaf7"/><path d="m223.527 117.892h64.944c.004-1.101-.41-2.202-1.24-3.044l-7.6-7.723c-.796-.808-1.87-1.26-2.992-1.26h-41.28c-1.117 0-2.188.447-2.983 1.251-.004.004-.004.004-.008.009l-7.6 7.723c-.051.052-.102.107-.152.159-.729.821-1.089 1.853-1.089 2.885z" fill="#a9cffc"/><path d="m241.275 117.892 13.939 32.92c.52.099 1.058.099 1.574 0l13.935-32.92-5.091-12.027h-19.267z" fill="#a9cffc"/><path d="m241.277 117.89 5.091-12.026h19.264l5.091 12.026z" fill="#cbe1ff"/></g><path d="m236.812 49.437-22.896 44.2c-2.565 4.951-.153 11.025 5.11 12.868 4.308 1.509 9.07-.382 11.17-4.435l22.898-44.2c2.489-4.805.297-10.709-4.725-12.725-4.383-1.758-9.385.099-11.557 4.292z" fill="#ffe059"/><path d="m243.368 76.643 4.169-8.047c2.299-4.438.572-9.899-3.859-12.211-.054-.028-.108-.057-.163-.085-4.454-2.325-9.948-.599-12.259 3.862l-4.163 8.036c-2.196 4.239-.729 9.455 3.354 11.93.057.035.114.069.171.104 4.487 2.716 10.338 1.068 12.75-3.589z" fill="#fff370"/></g><path d="m392.126 136.607-2.961 17.48c-.282 1.66-1.715 2.872-3.396 2.872h-99.024c-2.934 0-4.525-3.437-2.624-5.675l14.821-17.48c.654-.771 1.612-1.212 2.624-1.212h87.165c2.134 0 3.753 1.915 3.395 4.015z" fill="#fffdf3"/><path d="m225.254 156.956h-99.02c-1.68 0-3.114-1.212-3.395-2.868l-2.964-17.478c-.356-2.102 1.263-4.019 3.395-4.019h87.163c1.012 0 1.972.445 2.626 1.216l14.821 17.478c1.897 2.238.307 5.671-2.626 5.671z" fill="#fffdf3"/><path d="m392.126 136.607-2.961 17.48c-.282 1.66-1.715 2.872-3.396 2.872h-52.508c9.539-6.708 17.907-14.945 24.753-24.367h30.717c2.134 0 3.753 1.915 3.395 4.015z" fill="#fff7c7"/><path d="m392.126 136.607-2.961 17.48c-.282 1.66-1.715 2.872-3.396 2.872h-16.385c5.076-7.473 9.188-15.655 12.149-24.367h7.197c2.135 0 3.754 1.915 3.396 4.015z" fill="#fff370"/><path d="m388.675 174.825c0 1.894-.771 3.616-2.011 4.856s-2.955 2.011-4.849 2.011h-41.227c9.353-2.156 17.659-7.018 24.057-13.726h17.17c3.788-.001 6.86 3.071 6.86 6.859z" fill="#f97c15"/><g fill="#7cbaf7"><g><path d="m137.165 150.035-3.085-4.362c-.381-.539-.381-1.26 0-1.8l3.085-4.362c.621-.878 1.923-.878 2.544 0l3.085 4.362c.381.539.381 1.26 0 1.8l-3.085 4.362c-.621.878-1.923.878-2.544 0z"/><path d="m157.965 150.035-3.085-4.362c-.381-.539-.381-1.26 0-1.8l3.085-4.362c.621-.878 1.923-.878 2.544 0l3.085 4.362c.381.539.381 1.26 0 1.8l-3.085 4.362c-.621.878-1.923.878-2.544 0z"/><path d="m178.765 150.035-3.085-4.362c-.381-.539-.381-1.26 0-1.8l3.085-4.362c.621-.878 1.923-.878 2.544 0l3.085 4.362c.381.539.381 1.26 0 1.8l-3.085 4.362c-.62.878-1.923.878-2.544 0z"/><path d="m199.566 150.035-3.085-4.362c-.381-.539-.381-1.26 0-1.8l3.085-4.362c.621-.878 1.923-.878 2.544 0l3.085 4.362c.381.539.381 1.26 0 1.8l-3.085 4.362c-.621.878-1.923.878-2.544 0z"/></g><g><path d="m309.89 150.035-3.085-4.362c-.381-.539-.381-1.26 0-1.8l3.085-4.362c.621-.878 1.923-.878 2.544 0l3.085 4.362c.381.539.381 1.26 0 1.8l-3.085 4.362c-.621.878-1.923.878-2.544 0z"/><path d="m330.69 150.035-3.085-4.362c-.381-.539-.381-1.26 0-1.8l3.085-4.362c.621-.878 1.923-.878 2.544 0l3.085 4.362c.381.539.381 1.26 0 1.8l-3.085 4.362c-.62.878-1.923.878-2.544 0z"/><path d="m351.491 150.035-3.085-4.362c-.381-.539-.381-1.26 0-1.8l3.085-4.362c.621-.878 1.923-.878 2.544 0l3.085 4.362c.381.539.381 1.26 0 1.8l-3.085 4.362c-.621.878-1.923.878-2.544 0z"/><path d="m372.291 150.035-3.085-4.362c-.381-.539-.381-1.26 0-1.8l3.085-4.362c.621-.878 1.923-.878 2.544 0l3.085 4.362c.381.539.381 1.26 0 1.8l-3.085 4.362c-.621.878-1.923.878-2.544 0z"/></g></g></g><path d="m119.691 88.014c-7.546 0-12.516 7.941-9.134 14.687 3.325 6.631 6.047 13.383 8.272 19.954 1.48 4.371 5.604 7.292 10.219 7.292 7.463 0 12.702-7.427 10.116-14.428-2.799-7.579-6.318-15.251-10.74-22.574-1.847-3.058-5.16-4.931-8.733-4.931z" fill="#ffe059"/><path d="m134.75 104.879c-.343-.739-.693-1.477-1.052-2.213-2.635-5.414-9.238-7.556-14.522-4.671-4.764 2.601-6.733 8.387-4.62 13.387.273.646.54 1.291.803 1.937 2.107 5.18 7.929 7.772 13.206 5.92l.108-.038c5.847-2.052 8.685-8.7 6.077-14.322z" fill="#fff370"/></g></g></g></g><g><path d="m439.692 472.91v29.086c0 5.523-4.477 10-10 10h-138.54v-105.526h82.1c36.694 0 66.44 29.746 66.44 66.44z" fill="#fe255f"/><path d="m366.377 437.456h-50.107c-8.556 0-15.493-6.936-15.493-15.493 0-8.556 6.936-15.493 15.493-15.493h50.107c8.556 0 15.493 6.936 15.493 15.493 0 8.556-6.936 15.493-15.493 15.493z" fill="#fc709b"/><path d="m338.188 406.47h-8.356c-8.556 0-15.493 6.936-15.493 15.493 0 8.556 6.936 15.493 15.493 15.493h8.356c8.556 0 15.493-6.936 15.493-15.493 0-8.557-6.936-15.493-15.493-15.493z" fill="#f7a6c1"/><path d="m439.693 472.914v29.082c0 5.523-4.477 10-10 10h-94.165c36.955-6.37 65.064-52.102 65.064-90.863 0-3.049-.175-6.059-.524-9.02 23.332 10.301 39.625 33.653 39.625 60.801z" fill="#e01152"/><path d="m291.148 406.471v105.525h-35.372v-94.486c0-6.096 4.942-11.038 11.038-11.038h24.334z" fill="#706c64"/><path d="m220.847 406.471v-.001h-82.1c-36.694 0-66.44 29.746-66.44 66.44v29.086c0 5.523 4.477 10 10 10h138.116v-105.525z" fill="#fe255f"/><g><g><path d="m449.387 460.747v38.359c0 7.117-5.776 12.894-12.894 12.894h-42.408c-7.117 0-12.894-5.776-12.894-12.894v-38.359z" fill="#7cbaf7"/><g fill="#48acff"><path d="m449.387 460.747v22.68c-12.468 6.498-26.626 10.173-41.621 10.173-9.245 0-18.167-1.392-26.574-3.997v-28.856z"/><path d="m449.387 460.747v38.359c0 7.117-5.776 12.894-12.894 12.894h-26.677c14.389-8.239 24.086-23.75 24.086-41.518 0-3.339-.348-6.589-.993-9.735z"/></g></g><g><path d="m130.808 460.747v38.359c0 7.117-5.776 12.894-12.894 12.894h-42.407c-7.117 0-12.894-5.776-12.894-12.894v-38.359z" fill="#7cbaf7"/><g fill="#48acff"><path d="m62.613 460.747v22.68c12.468 6.498 26.626 10.173 41.621 10.173 9.245 0 18.167-1.392 26.574-3.997v-28.856z"/><path d="m130.808 460.747v38.359c0 7.117-5.776 12.894-12.894 12.894h-26.677c14.389-8.239 24.086-23.75 24.086-41.518 0-3.339-.348-6.589-.993-9.735z"/></g></g></g><path d="m220.427 406.47v105.53h-98.09c31.75-14.44 53.83-46.45 53.83-83.61 0-7.56-.91-14.9-2.64-21.92z" fill="#e01152"/><path d="m255.786 417.509v94.486h-35.362v-105.524h24.324c6.096 0 11.038 4.942 11.038 11.038z" fill="#595751"/></g><g><g><circle cx="412.434" cy="430.643" fill="#f5faff" r="55.087"/><path d="m467.52 430.64c0 30.43-24.66 55.09-55.09 55.09-17.78 0-33.59-8.43-43.66-21.5 6.94 3.09 14.63 4.8 22.71 4.8 30.9 0 55.95-25.05 55.95-55.95 0-11.6-3.53-22.39-9.59-31.32 17.64 9.18 29.68 27.62 29.68 48.88z" fill="#e3f0ff"/><ellipse cx="391.818" cy="432.623" fill="#7cbaf7" rx="10.148" ry="34.792"/><ellipse cx="427.254" cy="432.623" fill="#7cbaf7" rx="10.148" ry="34.792"/><path d="m467.518 430.64c0 11.84-3.73 22.8-10.07 31.78-2.94-6.09-4.91-17.16-4.91-29.8 0-14.31 2.52-26.61 6.13-31.95 5.6 8.63 8.85 18.92 8.85 29.97z" fill="#48acff"/></g><g><circle cx="99.566" cy="430.643" fill="#f5faff" r="55.087"/><path d="m154.65 430.64c0 30.43-24.66 55.09-55.08 55.09-14.64 0-27.96-5.72-37.82-15.03 4.13.94 8.43 1.44 12.85 1.44 31.72 0 57.44-25.71 57.44-57.44 0-13.28-4.51-25.51-12.08-35.24 20.33 8.1 34.69 27.96 34.69 51.18z" fill="#e3f0ff"/><g fill="#7cbaf7"><ellipse cx="120.182" cy="432.623" rx="10.148" ry="34.792"/><ellipse cx="84.746" cy="432.623" rx="10.148" ry="34.792"/><path d="m44.482 430.64c0 11.84 3.73 22.8 10.07 31.78 2.94-6.09 4.91-17.16 4.91-29.8 0-14.31-2.52-26.61-6.13-31.95-5.6 8.63-8.85 18.92-8.85 29.97z"/></g></g></g><path d="m130.33 432.62c0 19.22-4.54 34.8-10.15 34.8-2.78 0-5.3-3.84-7.14-10.04 8.29-7.47 14.4-17.33 17.23-28.5.04 1.23.06 2.48.06 3.74z" fill="#48acff"/><g fill="#fc9595"><ellipse cx="321.254" cy="285.147" rx="19.132" ry="13.71"/><ellipse cx="190.746" cy="285.147" rx="19.132" ry="13.71"/></g></g></svg>